<?xml version="1.0" encoding="utf-8"?>
<!-- Generator: Adobe Illustrator 26.0.1, SVG Export Plug-In . SVG Version: 6.00 Build 0)  -->
<svg version="1.1" id="Layer_1" xmlns="http://www.w3.org/2000/svg" xmlns:xlink="http://www.w3.org/1999/xlink" x="0px" y="0px"
	 viewBox="0 0 2880 1152" style="enable-background:new 0 0 2880 1152;" xml:space="preserve">
<style type="text/css">
	.st0{fill:#636AE9;}
	.st1{fill:#FFFFFF;}
	.st2{font-family:'DINAlternate-Bold';}
	.st3{font-size:400px;}
</style>
<g>
	<path class="st0" d="M404.65,632.96c-0.02-36.01-0.72-72.05,0.46-108.02c0.3-9.02,4.29-21.95,10.79-25.62
		c6.63-3.75,20.2-1.13,27.69,3.56c57.22,35.87,113.79,72.78,170.33,109.71c19,12.41,18.63,28.55-0.62,41.28
		c-41.84,27.67-83.97,54.89-125.79,82.59c-15.35,10.17-29.78,21.76-45.31,31.63c-20.57,13.09-37.07,4.33-37.4-19.9
		C404.29,709.79,404.67,671.37,404.65,632.96z M448.55,557.55c0,51.89,0,100.07,0,153.22c39.93-26.83,76.61-51.48,115.35-77.51
		C524.61,607.47,487.65,583.21,448.55,557.55z"/>
	<path class="st0" d="M515.78,891.38c-77.46,0.01-154.92,0.05-232.37-0.06c-8.37-0.01-16.84-0.3-25.09-1.59
		c-33.94-5.3-53.62-26.17-55.51-60.43c-1.29-23.39-0.7-46.88-0.71-70.33c-0.05-101.02-0.09-202.04,0.09-303.07
		c0.02-10.14-0.61-21.12,2.84-30.28c14.46-38.39,28.09-50.34,65.23-50.5c163.92-0.69,327.84-0.27,491.76-0.32
		c42.57-0.01,67.71,34.06,67.72,68.85c0.06,125.68,0.5,251.35-0.15,377.03c-0.24,46.65-25.23,70.33-72.43,70.58
		C676.7,891.68,596.24,891.37,515.78,891.38z M695.77,842.83c0-140.18,0-279.3,0-419.53c-120.2,0-239.32,0-359.56,0
		c0,140.18,0,279.3,0,419.53C456.42,842.83,575.53,842.83,695.77,842.83z M245.83,611.64c13.24,0,24.53,0.45,35.75-0.28
		c3.34-0.22,9.21-3.65,9.28-5.75c0.68-22.13,0.42-44.28,0.42-65.85c-17.64,0-31.15,0-45.45,0
		C245.83,563.58,245.83,586.16,245.83,611.64z M739.99,539.34c0,21.94-0.46,41.66,0.41,61.31c0.17,3.75,5.29,10.05,8.62,10.4
		c12.15,1.26,24.5,0.5,36.39,0.5c0-26.11,0-49.14,0-72.21C770.14,539.34,756.48,539.34,739.99,539.34z M245.86,726.18
		c16.18,0,30.21,0,46.01,0c0-21.68,0.37-41.97-0.38-62.21c-0.12-3.22-5.12-8.66-8.22-8.93c-12.21-1.04-24.56-0.43-37.4-0.43
		C245.86,680.03,245.86,702.61,245.86,726.18z M785.42,726.11c0-24.32,0-47.32,0-70.44c-3.85-0.54-6.17-1.15-8.5-1.15
		c-44.04,0.06-37.08-4.61-36.85,35.14c0.25,43.71-9.2,37.63,39.23,37.74C781.01,727.41,782.71,726.7,785.42,726.11z M245.11,493.06
		c45.94,7.73,47.05,6.84,47.05-34.81c0-4.81,0.18-9.62-0.04-14.42c-0.48-10.15,3.56-22.29-14.69-21.92
		c-22.17,0.45-31.3,5.17-32.15,22.15C244.47,460.17,245.11,476.34,245.11,493.06z M785.05,493.07c0.59-1.76,1.59-3.4,1.62-5.06
		c0.21-13.21,0.51-26.43,0.25-39.64c-0.39-20.12-7.64-25.04-29.87-26.49c-21.68-1.41-16.67,13.09-17.19,24.87
		c-0.19,4.2-0.03,8.41-0.03,12.62c0,39.63,0.58,40.16,40.18,35.6C781.7,494.78,783.29,493.76,785.05,493.07z M291.77,843.2
		c0-20.9,0.4-40.55-0.43-60.14c-0.13-2.99-5.74-7.9-9.14-8.2c-11.7-1.02-23.54-0.39-36.91-0.39c0,18.63-1.69,34.99,0.79,50.67
		c1.07,6.73,9.83,14.62,16.89,17.38C270.67,845.52,280.44,843.2,291.77,843.2z M786.67,777.2c-42.9-9.59-46.85-6.62-46.84,33.31
		c0,4.2-0.42,8.46,0.1,12.6c1.05,8.47-4.44,20.07,11.83,20.97c21.72,1.21,33.35-3.82,34.63-19.32
		C787.69,808.85,786.67,792.75,786.67,777.2z"/>
	<text transform="matrix(1 0 0 1 906.1163 791.5571)" class="st1 st2 st3">bingeHub</text>
</g>
</svg>
