<?xml version="1.0" standalone="no"?>
<!DOCTYPE svg PUBLIC "-//W3C//DTD SVG 20010904//EN"
 "http://www.w3.org/TR/2001/REC-SVG-20010904/DTD/svg10.dtd">
<svg version="1.0" xmlns="http://www.w3.org/2000/svg"
 width="512.000000pt" height="512.000000pt" viewBox="0 0 512.000000 512.000000"
 preserveAspectRatio="xMidYMid meet">

<g transform="translate(0.000000,512.000000) scale(0.100000,-0.100000)"
fill="#000000" stroke="none">
<path d="M599 4852 c-43 -22 -59 -38 -81 -81 l-28 -53 0 -568 0 -567 33 -36
c19 -19 42 -52 52 -74 26 -53 31 -150 11 -209 -18 -52 -21 -100 -7 -108 4 -3
28 4 52 16 34 16 64 22 126 22 81 1 83 2 94 29 36 87 125 156 226 178 71 14
148 -2 214 -46 l50 -34 47 33 c26 18 60 38 76 43 25 8 32 17 41 60 14 62 47
116 90 148 155 119 370 26 392 -168 8 -71 19 -90 82 -134 39 -27 63 -54 83
-92 25 -48 34 -56 79 -71 67 -23 117 -65 158 -133 l34 -57 62 0 c84 0 145 -23
205 -77 78 -70 95 -109 95 -223 0 -83 -3 -101 -25 -139 l-25 -43 43 -46 c43
-46 72 -117 72 -176 -1 -17 -10 -76 -21 -131 -27 -138 -164 -950 -178 -1057
-6 -48 -14 -95 -17 -103 -5 -13 101 -15 947 -15 l954 0 53 66 c110 136 239
352 318 534 272 630 280 1362 22 1987 l-29 71 -52 -5 c-46 -4 -109 6 -204 33
l-23 6 0 -786 0 -786 -29 -32 -29 -33 -736 0 -736 0 -25 26 c-14 14 -28 42
-32 62 l-6 37 40 0 c52 0 89 29 103 82 26 94 -21 178 -99 178 l-41 0 2 528 3
527 44 6 c77 10 116 87 91 178 -13 49 -56 81 -109 81 -33 0 -33 0 -26 38 3 20
17 48 31 62 l24 25 420 3 420 3 -6 42 c-4 23 -7 43 -8 44 -1 1 -24 -4 -51 -13
-127 -38 -252 47 -316 215 -27 69 -37 230 -20 312 18 88 72 189 134 253 l56
57 -47 69 -47 70 -1486 0 -1487 0 -53 -28z m322 -777 c19 -10 46 -28 60 -41
31 -30 75 -43 109 -33 93 27 210 -7 269 -77 102 -124 60 -309 -88 -381 -78
-38 -209 -16 -265 46 -27 30 -74 43 -116 31 -105 -30 -231 16 -284 103 -58 94
-43 226 32 300 75 74 196 96 283 52z"/>
<path d="M3385 3691 c-78 -33 -89 -201 -16 -241 11 -5 52 -10 91 -10 66 0 74
2 101 29 26 27 29 35 29 98 0 72 -13 100 -57 122 -25 13 -118 14 -148 2z"/>
<path d="M3804 3690 c-12 -4 -31 -21 -43 -36 -40 -51 -22 -176 28 -204 11 -5
52 -10 91 -10 66 0 74 2 101 29 26 27 29 35 29 98 0 72 -13 100 -57 122 -25
13 -118 14 -149 1z"/>
<path d="M4260 3675 c-13 -14 -41 -33 -62 -42 -38 -17 -38 -17 -38 -76 0 -51
4 -62 29 -88 27 -27 35 -29 106 -29 71 0 79 2 106 29 26 27 29 36 29 96 0 63
-2 69 -34 101 -44 44 -100 48 -136 9z"/>
<path d="M17 2493 c-17 -4 -18 -13 -12 -91 48 -627 301 -1193 729 -1630 370
-379 857 -637 1367 -726 169 -29 266 -38 449 -37 432 1 766 79 1150 269 l175
87 -82 3 -83 3 0 167 -1 167 -19 -36 c-46 -87 -171 -125 -265 -79 -27 13 -59
40 -76 63 l-29 40 0 -161 0 -162 -395 0 -395 0 5 23 c8 37 65 384 65 399 0 7
-7 0 -16 -17 -79 -154 -304 -176 -419 -42 -20 23 -39 52 -42 66 -3 13 46 334
111 720 64 383 116 714 116 737 0 91 -93 208 -185 234 -55 15 -149 9 -192 -14
-17 -8 -45 -30 -62 -47 -68 -67 -71 -81 -186 -769 -76 -456 -112 -652 -124
-670 -23 -33 -103 -76 -156 -83 -94 -13 -205 41 -252 121 l-26 44 99 594 98
593 -18 56 c-38 109 -136 185 -241 185 -105 0 -177 -41 -231 -132 -32 -56 -37
-78 -89 -391 -30 -183 -59 -348 -65 -367 -6 -25 -22 -43 -52 -63 -111 -72
-239 -57 -331 38 -66 68 -66 68 -19 354 52 314 53 343 10 423 -51 96 -123 139
-230 137 -35 -1 -71 -3 -81 -6z"/>
<path d="M3354 2346 c-31 -31 -34 -39 -34 -96 0 -57 3 -65 34 -96 32 -32 37
-34 106 -34 66 0 74 2 101 29 27 27 29 35 29 101 0 66 -2 74 -29 101 -27 27
-35 29 -101 29 -69 0 -74 -2 -106 -34z"/>
<path d="M3791 2366 c-35 -19 -50 -54 -51 -113 0 -100 35 -133 145 -133 60 0
69 3 96 29 27 27 29 35 29 101 0 66 -2 74 -29 101 -27 26 -35 29 -98 29 -37
-1 -79 -7 -92 -14z"/>
<path d="M4211 2366 c-35 -19 -50 -54 -51 -113 0 -97 36 -133 135 -133 101 0
135 33 135 130 0 69 -14 97 -57 119 -30 15 -133 13 -162 -3z"/>
</g>
</svg>
